<svg width="28" height="28" viewBox="0 0 28 28" fill="none" xmlns="http://www.w3.org/2000/svg">
<path d="M19.6597 18.4655C19.8182 18.624 19.9072 18.839 19.9072 19.0631C19.9072 19.2873 19.8182 19.5023 19.6597 19.6608C19.5012 19.8193 19.2862 19.9084 19.062 19.9084C18.8378 19.9084 18.6229 19.8193 18.4644 19.6608L14.0002 15.1953L9.53467 19.6594C9.37616 19.8179 9.16118 19.907 8.93701 19.907C8.71285 19.907 8.49786 19.8179 8.33935 19.6594C8.18085 19.5009 8.0918 19.2859 8.0918 19.0617C8.0918 18.8376 8.18085 18.6226 8.33935 18.4641L12.8049 13.9999L8.34076 9.53439C8.18225 9.37588 8.0932 9.1609 8.0932 8.93674C8.0932 8.71257 8.18225 8.49759 8.34076 8.33908C8.49927 8.18057 8.71425 8.09152 8.93842 8.09152C9.16258 8.09152 9.37756 8.18057 9.53607 8.33908L14.0002 12.8046L18.4658 8.33838C18.6243 8.17987 18.8393 8.09082 19.0634 8.09082C19.2876 8.09082 19.5026 8.17987 19.6611 8.33838C19.8196 8.49689 19.9086 8.71187 19.9086 8.93603C19.9086 9.1602 19.8196 9.37518 19.6611 9.53369L15.1955 13.9999L19.6597 18.4655Z" fill="#1C1C1C"/>
</svg>
