<svg width="28" height="28" viewBox="0 0 28 28" fill="none" xmlns="http://www.w3.org/2000/svg">
<path d="M20.0229 12.1478L14.3979 17.7728C14.3457 17.8251 14.2836 17.8666 14.2154 17.8949C14.1471 17.9232 14.0739 17.9378 13.9999 17.9378C13.926 17.9378 13.8528 17.9232 13.7845 17.8949C13.7163 17.8666 13.6542 17.8251 13.602 17.7728L7.97698 12.1478C7.87143 12.0422 7.81213 11.8991 7.81213 11.7498C7.81213 11.6006 7.87143 11.4574 7.97698 11.3519C8.08253 11.2463 8.22568 11.187 8.37495 11.187C8.52421 11.187 8.66737 11.2463 8.77292 11.3519L13.9999 16.5796L19.227 11.3519C19.2792 11.2996 19.3413 11.2581 19.4096 11.2299C19.4779 11.2016 19.551 11.187 19.6249 11.187C19.6989 11.187 19.772 11.2016 19.8403 11.2299C19.9086 11.2581 19.9707 11.2996 20.0229 11.3519C20.0752 11.4041 20.1166 11.4662 20.1449 11.5344C20.1732 11.6027 20.1878 11.6759 20.1878 11.7498C20.1878 11.8237 20.1732 11.8969 20.1449 11.9652C20.1166 12.0335 20.0752 12.0955 20.0229 12.1478Z" fill="#1C1C1C"/>
</svg>
