<svg width="18" height="18" viewBox="0 0 18 18" fill="none" xmlns="http://www.w3.org/2000/svg">
<path fill-rule="evenodd" clip-rule="evenodd" d="M15.6638 7.35575L15.8848 7.05637L16.9342 7.83105L16.7132 8.13043C12.9073 13.2859 5.19815 13.2859 1.39227 8.13043L1.17127 7.83105L2.22064 7.05637L2.44165 7.35575C5.72618 11.805 12.3793 11.805 15.6638 7.35575Z" fill="#353030"/>
<path fill-rule="evenodd" clip-rule="evenodd" d="M5.75879 13.2331L6.28053 11.1461L7.54593 11.4625L7.02419 13.5494L5.75879 13.2331Z" fill="#353030"/>
<path fill-rule="evenodd" clip-rule="evenodd" d="M1.72266 10.8799L3.28787 9.05383L4.27821 9.90269L2.71299 11.7288L1.72266 10.8799Z" fill="#353030"/>
<path fill-rule="evenodd" clip-rule="evenodd" d="M12.2422 13.2331L11.7204 11.1461L10.455 11.4625L10.9768 13.5494L12.2422 13.2331Z" fill="#353030"/>
<path fill-rule="evenodd" clip-rule="evenodd" d="M16.2783 10.8799L14.7131 9.05383L13.7228 9.90269L15.288 11.7288L16.2783 10.8799Z" fill="#353030"/>
</svg>
